HIERARCHY
ROOT hip
{
	OFFSET 0.000000 0.000000 0.000000 
	CHANNELS 6 Xposition Yposition Zposition Xrotation Zrotation Yrotation
	JOINT abdomen
	{
		OFFSET 0.000000 3.402643 0.000000 
		CHANNELS 3 Xrotation Zrotation Yrotation
		JOINT chest
		{
			OFFSET 0.000000 8.438565 -0.680529 
			CHANNELS 3 Xrotation Zrotation Yrotation
			JOINT neck
			{
				OFFSET 0.000000 10.207942 -0.272212 
				CHANNELS 3 Xrotation Zrotation Yrotation
				JOINT head
				{
					OFFSET 0.000000 3.130431 0.000000 
					CHANNELS 3 Xrotation Zrotation Yrotation
					End Site
					{
						OFFSET 0.000000 3.130435 0.000000 
					}
				}
			}
			JOINT lCollar
			{
				OFFSET 3.470700 6.669187 -0.816635 
				CHANNELS 3 Yrotation Zrotation Xrotation
				JOINT lShldr
				{
					OFFSET 3.198488 0.000000 0.000000 
					CHANNELS 3 Zrotation Yrotation Xrotation
					JOINT lForeArm
					{
						OFFSET 10.139888 0.000000 0.000000 
						CHANNELS 3 Yrotation Zrotation Xrotation
						JOINT lHand
						{
							OFFSET 8.370511 0.000000 0.000000 
							CHANNELS 3 Zrotation Yrotation Xrotation
							End Site
							{
								OFFSET 4.083176 0.000000 0.000000 
							}
						}
					}
				}
			}
			JOINT rCollar
			{
				OFFSET -3.470700 6.669187 -0.816635 
				CHANNELS 3 Yrotation Zrotation Xrotation
				JOINT rShldr
				{
					OFFSET -3.198488 0.000000 0.000000 
					CHANNELS 3 Zrotation Yrotation Xrotation
					JOINT rForeArm
					{
						OFFSET -10.139888 0.000000 0.000000 
						CHANNELS 3 Yrotation Zrotation Xrotation
						JOINT rHand
						{
							OFFSET -8.370511 0.000000 0.000000 
							CHANNELS 3 Zrotation Yrotation Xrotation
							End Site
							{
								OFFSET -4.083176 0.000000 0.000000 
							}
						}
					}
				}
			}
		}
	}
	JOINT lThigh
	{
		OFFSET 5.308129 -1.633274 1.361059 
		CHANNELS 3 Xrotation Zrotation Yrotation
		JOINT lShin
		{
			OFFSET -2.041588 -20.007561 0.000000 
			CHANNELS 3 Xrotation Zrotation Yrotation
			JOINT lFoot
			{
				OFFSET 0.000000 -19.190928 -1.224953 
				CHANNELS 3 Xrotation Yrotation Zrotation
				End Site
				{
					OFFSET 0.000000 -2.449906 4.627600 
				}
			}
		}
	}
	JOINT rThigh
	{
		OFFSET -5.308129 -1.633274 1.361059 
		CHANNELS 3 Xrotation Zrotation Yrotation
		JOINT rShin
		{
			OFFSET 2.041588 -20.007561 0.000000 
			CHANNELS 3 Xrotation Zrotation Yrotation
			JOINT rFoot
			{
				OFFSET 0.000000 -19.190928 -1.224953 
				CHANNELS 3 Xrotation Yrotation Zrotation
				End Site
				{
					OFFSET 0.000000 -2.449906 4.627600 
				}
			}
		}
	}
}
MOTION
Frames: 20
Frame Time: 0.033333
-0.399113 48.784199 -0.399113 19.960938 0.000000 -0.019531 16.191406 0.003384 -0.009172 -0.078123 -0.010134 -0.009384 -8.544922 -0.001505 -0.009645 -4.082031 -0.009475 0.002116 2.000000 -2.000000 0.000000 -87.068146 -53.248562 39.611214 -53.855064 -0.560902 8.616065 -20.993462 15.832806 -16.153557 -2.000000 2.000000 0.000000 54.806473 63.176476 16.658146 40.860291 0.623413 8.497859 16.218479 -16.459957 -16.732687 -48.867760 4.022426 0.329851 46.506451 -0.393853 -3.339399 -17.681864 0.769410 -2.015742 -48.874401 -4.130470 -0.365733 46.527504 0.373884 3.293517 -17.691435 -0.762564 2.030686 
-0.399113 45.749088 -0.399113 19.960938 0.000000 -0.019531 18.720701 0.003384 -0.009172 3.037111 -0.010134 -0.009384 -8.544922 -0.001505 -0.009645 -6.435548 -0.009380 0.002504 2.000000 -2.000000 0.000000 -86.610954 -58.881195 39.039482 -53.855064 -0.560902 8.616065 -20.993462 15.832806 -16.153557 -2.000000 2.000000 0.000000 47.024902 67.577095 8.109591 40.860291 0.623413 8.497859 16.218479 -16.459957 -16.732687 -57.260380 4.032742 0.316520 60.897045 0.463772 -3.862084 -23.717415 0.972704 -1.919329 -57.258118 -4.130246 -0.365709 60.897202 -0.496912 3.833801 -23.717178 -0.979257 1.937857 
-0.394104 42.889126 -0.394104 19.960938 0.000000 -0.019531 21.796873 0.003384 -0.009172 6.806642 -0.010134 -0.009384 -8.544922 -0.001505 -0.009645 -9.296874 -0.009243 0.002967 2.000000 -2.000000 0.000000 -85.728561 -65.727188 38.049088 -53.855064 -0.560902 8.616065 -20.993462 15.832806 -16.153557 -2.000000 2.000000 0.000000 32.699646 72.003517 -7.133423 40.860291 0.623413 8.497859 16.218479 -16.459957 -16.732687 -63.766521 4.023149 0.325802 72.063553 1.223294 -4.118566 -28.414282 1.137693 -1.849960 -63.785210 -4.130607 -0.353827 72.064041 -1.249174 4.081259 -28.414173 -1.139929 1.859979 
-0.394104 40.470093 -0.394104 19.960938 0.000000 -0.019531 25.244139 0.003384 -0.009172 11.025393 -0.010134 -0.009384 -8.544922 -0.001505 -0.009645 -12.509767 -0.009062 0.003482 2.000000 -2.000000 0.000000 -83.836609 -73.349503 36.052078 -53.855064 -0.560902 8.616065 -20.993462 15.832806 -16.153557 -2.000000 2.000000 0.000000 8.448146 74.764153 -32.393093 40.860291 0.623413 8.497859 16.218479 -16.459957 -16.732687 -68.643600 4.032593 0.328318 80.374664 1.807799 -4.218473 -31.881018 1.245287 -1.777367 -68.634102 -4.130437 -0.354389 80.375183 -1.835462 4.176812 -31.851610 -1.249503 1.786016 
-0.394104 38.767139 -0.394104 19.960938 0.000000 -0.019531 28.447266 0.003384 -0.009172 14.775392 -0.010134 -0.009384 -8.544922 -0.001505 -0.009645 -15.449221 -0.008872 0.003942 2.000000 -2.000000 0.000000 -79.482956 -80.237869 31.582115 -53.855064 -0.560902 8.616065 -20.993462 15.832806 -16.153557 -2.000000 2.000000 0.000000 -16.778032 74.238235 -58.542187 40.860291 0.623413 8.497859 16.218479 -16.459957 -16.732687 -71.992844 4.022717 0.340437 85.715012 2.197406 -4.226405 -33.883087 1.307414 -1.717015 -71.983566 -4.130368 -0.356079 85.715988 -2.216423 4.180720 -33.892765 -1.307014 1.729099 
-0.394104 39.418213 -0.394104 19.960938 0.000000 -0.019531 26.025389 0.003384 -0.009172 9.921877 -0.010134 -0.009384 -8.544922 -0.001505 -0.009645 -4.365234 -0.009464 0.002163 2.000000 -2.000000 0.000000 -85.875084 -64.748756 38.231659 -53.855064 -0.560902 8.616065 -20.993462 15.832806 -16.153557 -2.000000 2.000000 0.000000 35.157562 71.459534 -4.542217 40.860291 0.623413 8.497859 16.218479 -16.459957 -16.732687 -71.102135 4.033072 0.324451 85.715408 2.187691 -4.225530 -34.771641 1.336349 -1.711658 -71.092285 -4.130521 -0.357105 85.715988 -2.216423 4.180721 -34.771790 -1.324130 1.709443 
-0.394104 40.850632 -0.394104 19.960938 0.000000 -0.019531 7.871094 0.003384 -0.009171 -4.570311 -0.010753 -0.008668 -8.544922 -0.001505 -0.009645 18.095707 0.000057 -0.009760 2.000000 -2.000000 0.000000 -87.972137 -30.516191 40.928017 -53.855064 -0.560902 8.616065 -20.993462 15.832806 -16.153557 -2.000000 2.000000 0.000000 69.235085 42.864750 34.348553 40.860291 0.623413 8.497859 16.218479 -16.459957 -16.732687 -69.133553 4.032231 0.325531 85.626450 2.197235 -4.242767 -36.637131 1.390516 -1.641586 -69.133865 -4.130697 -0.351148 85.628952 -2.196879 4.176157 -36.656544 -1.382488 1.671897 
-0.394104 41.762241 -0.394104 19.960938 0.000000 -0.019531 -5.400389 -0.009251 -0.003304 -17.988283 -0.018934 0.004543 -8.544922 -0.001505 -0.009645 34.501961 0.000053 -0.009744 2.000000 -2.000000 0.000000 -88.965187 -7.937148 39.801201 -54.046429 -0.563990 8.618813 -21.184423 16.992916 -14.040533 -2.000000 2.000000 0.000000 74.034126 19.007658 43.467705 40.860291 0.623413 8.497859 16.218479 -16.459957 -16.732687 -67.762970 4.023178 0.326871 85.500725 2.177947 -4.227045 -37.877403 1.416326 -1.633539 -67.752327 -4.130469 -0.357830 85.481781 -2.206649 4.181711 -37.887280 -1.412291 1.624838 
-0.394104 41.101166 -0.394104 16.025734 -0.308296 8.426607 -5.005614 0.624808 -3.291903 -15.220434 -0.518271 -1.875936 -8.544922 -0.001505 -0.009645 33.864861 -1.341670 -1.396750 2.000000 -2.000000 0.000000 -86.460510 -13.636688 32.494755 -54.270065 -0.559702 8.619740 -21.529209 18.189537 -11.429690 -2.000000 2.000000 0.000000 71.225403 20.875547 40.069614 40.886150 0.626071 8.500314 14.960945 -16.935009 -17.370329 -64.373779 4.023130 0.327273 80.131187 1.788410 -4.215724 -30.074549 1.175974 -1.814844 -66.312759 -4.130617 -0.352753 80.131264 -1.825725 4.175923 -29.400648 -1.165419 1.825833 
-0.394104 40.449963 -0.394104 11.855913 0.002914 17.363281 -4.329370 1.375903 -6.726856 -11.568585 -0.813901 -3.899542 -8.544922 -0.001505 -0.009645 32.189526 -2.862848 -2.806388 2.000000 -2.000000 0.000000 -83.059425 -20.469852 24.287432 -54.510822 -0.563528 8.618286 -21.698278 19.514244 -8.838913 -2.000000 2.000000 0.000000 68.231506 23.656414 36.052338 40.933014 0.622748 8.502878 13.693280 -17.424479 -18.036737 -60.894970 4.022900 0.339133 74.537308 1.408561 -4.171222 -21.832405 0.920342 -1.967477 -64.863960 -4.130709 -0.338957 74.539490 -1.406247 4.115320 -20.436028 -0.872247 1.976299 
-0.544362 39.889019 -0.544362 7.629171 1.010989 26.599806 -3.929223 2.120204 -9.630865 -8.434448 -0.735086 -5.887009 -8.544922 -0.001505 -0.009645 31.419443 -4.707256 -5.119164 2.000000 -2.000000 0.000000 -79.422493 -26.516914 15.959574 -54.684326 -0.555747 8.623266 -21.394396 21.055761 -6.824833 -2.000000 2.000000 0.000000 64.517197 25.243341 31.273855 40.954178 0.624262 8.496838 12.403001 -17.953474 -18.691311 -58.024307 4.032447 0.323401 69.890579 1.076914 -4.082239 -14.976018 0.665813 -2.049538 -63.696655 -4.130254 -0.359231 69.891426 -1.103041 4.035858 -12.943866 -0.604810 2.067893 
-0.694618 39.348080 -0.694618 3.540981 2.715378 35.949051 -3.847214 2.875093 -12.679313 -5.177103 -0.496271 -8.252254 -8.544922 -0.001505 -0.009645 30.828787 -6.791052 -7.160566 2.000000 -2.000000 0.000000 -74.444565 -32.132732 6.305764 -54.763611 -0.562491 8.621500 -20.300434 22.855213 -5.872247 -2.000000 2.000000 0.000000 61.002953 26.673265 26.695639 41.001030 0.620905 8.499400 11.087973 -18.504011 -19.339266 -55.075489 4.023082 0.316848 65.126503 0.746397 -3.968168 -7.964814 0.403436 -2.131222 -62.463711 -4.130795 -0.338399 65.126663 -0.771508 3.943168 -5.336976 -0.327873 2.154490 
-0.839866 38.937405 -0.839866 -0.242192 5.055719 45.233280 -3.947140 3.641303 -15.795261 -1.894369 -0.053787 -10.754959 -8.544922 -0.001505 -0.009645 30.316515 -9.089523 -9.277086 2.000000 -2.000000 0.000000 -67.668144 -36.959846 -5.178648 -54.892155 -0.559273 8.631255 -18.029049 24.692387 -5.296076 -2.000000 2.000000 0.000000 57.515091 27.839195 21.975906 41.039890 0.628570 8.499826 9.747823 -19.075724 -19.983686 -52.113430 4.032236 0.323863 60.360527 0.443033 -3.849844 -0.940797 0.132957 -2.169464 -61.246586 -4.130389 -0.367234 60.361092 -0.467581 3.816904 2.275258 -0.043597 2.140643 
-1.005149 38.636871 -1.005149 -3.634707 7.990149 54.328846 -4.055146 4.442311 -18.844158 1.269113 0.587150 -13.143113 -8.544922 -0.001505 -0.009645 29.817249 -11.433677 -11.799624 2.000000 -2.000000 0.000000 -59.106422 -40.552074 -18.449772 -55.181835 -0.562069 8.625216 -14.690724 26.418686 -4.454686 -2.000000 2.000000 0.000000 53.916359 28.629520 16.812790 41.073891 0.627609 8.498133 8.430436 -19.641975 -20.634960 -49.191856 4.022282 0.324825 55.643429 0.140629 -3.690502 5.991088 -0.135895 -2.173699 -60.042641 -4.130737 -0.349273 55.644814 -0.156419 3.643917 9.826186 0.243505 2.142608 
-1.165422 38.466602 -1.165422 -6.438707 11.325562 63.136295 -4.026723 5.283326 -21.714697 4.309315 1.388094 -15.149969 -8.544922 -0.001505 -0.009645 29.308119 -13.586099 -15.005992 2.000000 -2.000000 0.000000 -49.366844 -42.962864 -32.502182 -55.433876 -0.558279 8.628197 -10.941196 28.269926 -3.999740 -2.000000 2.000000 0.000000 50.245129 28.858112 10.957599 41.120728 0.624192 8.500696 7.071966 -20.262625 -21.277790 -46.356350 4.023048 0.328402 51.051727 -0.150254 -3.519100 12.766423 -0.373326 -2.149635 -58.885956 -4.130737 -0.353685 51.032585 0.119323 3.494473 17.185244 0.502779 2.074187 
-1.315679 38.446602 -1.315679 -8.674822 14.884073 71.566452 -3.668106 6.194278 -24.324938 7.060432 2.214481 -16.556971 -8.544922 -0.001505 -0.009645 28.847027 -15.214239 -19.132301 2.000000 -2.000000 0.000000 -39.017181 -44.644138 -46.318310 -55.433876 -0.558279 8.628197 -7.440228 30.622665 -4.584592 -2.000000 2.000000 0.000000 46.681797 28.275679 4.278914 41.167557 0.620752 8.503260 5.721243 -20.871595 -21.905926 -43.637627 4.022668 0.329608 46.653133 -0.403655 -3.340780 19.234074 -0.597759 -2.100144 -57.749378 -4.130780 -0.349621 46.654682 0.380893 3.292791 24.225477 0.758938 1.989121 
-1.475948 38.606869 -1.475948 -10.306300 18.526054 79.557343 -2.808699 7.170857 -26.522223 9.463474 2.955777 -17.128174 -8.544922 -0.001505 -0.009645 28.484404 -15.952234 -24.369183 2.000000 -2.000000 0.000000 -28.158493 -46.332073 -59.312531 -54.978951 -0.560684 8.625834 -4.969652 33.868172 -6.959822 -2.000000 2.000000 0.000000 43.532532 26.585897 -3.333812 41.201721 0.627206 8.495159 4.381056 -21.513533 -22.506933 -41.113853 4.032106 0.318635 42.536873 -0.627471 -3.130025 25.315744 -0.845231 -2.016323 -56.690811 -4.130557 -0.349690 42.537914 0.595607 3.098971 30.815840 0.987373 1.898582 
-1.641230 38.867275 -1.641230 -11.328325 22.075493 87.053566 -1.277404 8.258233 -28.219696 11.472368 3.468485 -16.654156 -8.544922 -0.001505 -0.009645 28.236782 -15.419025 -30.840343 2.000000 -2.000000 0.000000 -16.150984 -48.778122 -71.655190 -53.855064 -0.560902 8.616065 -4.578527 38.310246 -12.041615 -2.000000 2.000000 0.000000 41.279900 23.597595 -11.731180 41.235531 0.618721 8.499763 3.035179 -22.158075 -23.121264 -38.774590 4.032371 0.329957 38.768948 -0.812645 -2.959462 30.873257 -1.005172 -1.937267 -55.748631 -4.130482 -0.365294 38.751308 0.784909 2.910650 36.860046 1.181108 1.772726 
-1.801512 39.568481 -1.801512 -11.495671 22.939838 88.849091 5.969309 10.168363 -25.582952 10.201006 1.836964 -7.977564 -8.544922 -0.001505 -0.009645 28.186495 -6.929457 -47.008759 2.000000 -2.000000 0.000000 10.959130 -66.960548 -90.417068 -49.233101 -0.588277 8.572904 -17.742014 47.048187 -35.915321 -2.000000 2.000000 0.000000 41.457989 12.568472 -28.769003 41.287209 0.623803 8.504514 1.702780 -22.808849 -23.697458 -38.204971 4.022361 0.338566 37.871029 -0.851549 -2.907889 32.200188 -1.067850 -1.913317 -55.523197 -4.130461 -0.364830 37.852711 0.824029 2.878769 38.294628 1.243149 1.742392 
-1.961780 40.449963 -1.961780 -11.328325 22.075493 87.053566 16.642836 12.953197 -19.639166 6.409188 -0.375973 5.860637 -8.544922 -0.001505 -0.009645 24.506138 3.662051 -70.212173 2.000000 -2.000000 0.000000 -68.795982 -111.521439 -2.383538 -42.578381 -0.624375 8.514235 -45.814991 48.601852 -77.567970 -2.000000 2.000000 0.000000 44.873600 -2.370357 -51.482510 41.321190 0.622744 8.502707 0.378117 -23.474983 -24.248436 -38.774590 4.032374 0.329956 38.768948 -0.812644 -2.959462 30.873257 -1.005172 -1.937267 -55.748631 -4.130483 -0.365294 38.751308 0.784911 2.910650 36.860050 1.181115 1.772726 
